HIERARCHY
ROOT Hips
{
	OFFSET -0.001795 -0.223333 0.028219
	CHANNELS 6 Xposition Yposition Zposition Zrotation Yrotation Xrotation 
	JOINT LeftUpLeg
	{
		OFFSET 0.069520 -0.091406 -0.006815
		CHANNELS 3 Zrotation Yrotation Xrotation
		JOINT LeftLeg
		{
			OFFSET 0.034277 -0.375199 -0.004496
			CHANNELS 3 Zrotation Yrotation Xrotation
			JOINT LeftFoot
			{
				OFFSET -0.013596 -0.397961 -0.043693
				CHANNELS 3 Zrotation Yrotation Xrotation
				JOINT LeftToe
				{
					OFFSET 0.026358 -0.055791 0.119288
					CHANNELS 3 Zrotation Yrotation Xrotation
					End Site
					{
						OFFSET 0.000000 0.000000 0.000000
					}
				}
			}
		}
	}
	JOINT RightUpLeg
	{
		OFFSET -0.067670 -0.090522 -0.004320
		CHANNELS 3 Zrotation Yrotation Xrotation
		JOINT RightLeg
		{
			OFFSET -0.038290 -0.382569 -0.008850
			CHANNELS 3 Zrotation Yrotation Xrotation
			JOINT RightFoot
			{
				OFFSET 0.015774 -0.398415 -0.042312
				CHANNELS 3 Zrotation Yrotation Xrotation
				JOINT RightToe
				{
					OFFSET -0.025372 -0.048144 0.123348
					CHANNELS 3 Zrotation Yrotation Xrotation
					End Site
					{
						OFFSET 0.000000 0.000000 0.000000
					}
				}
			}
		}
	}
	JOINT Spine
	{
		OFFSET -0.002533 0.108963 -0.026696
		CHANNELS 3 Zrotation Yrotation Xrotation
		JOINT Spine1
		{
			OFFSET 0.005487 0.135180 0.001092
			CHANNELS 3 Zrotation Yrotation Xrotation
			JOINT Spine2
			{
				OFFSET 0.001457 0.052922 0.025425
				CHANNELS 3 Zrotation Yrotation Xrotation
				JOINT Neck
				{
					OFFSET -0.002778 0.213870 -0.042857
					CHANNELS 3 Zrotation Yrotation Xrotation
					JOINT Head
					{
						OFFSET 0.005152 0.064970 0.051349
						CHANNELS 3 Zrotation Yrotation Xrotation
						End Site
						{
							OFFSET 0.000000 0.000000 0.000000
						}
					}
				}
				JOINT LeftShoulder
				{
					OFFSET 0.078845 0.121749 -0.034090
					CHANNELS 3 Zrotation Yrotation Xrotation
					JOINT LeftArm
					{
						OFFSET 0.090977 0.030469 -0.008868
						CHANNELS 3 Zrotation Yrotation Xrotation
						JOINT LeftForeArm
						{
							OFFSET 0.259612 -0.012772 -0.027456
							CHANNELS 3 Zrotation Yrotation Xrotation
							JOINT LeftHand
							{
								OFFSET 0.249234 0.008986 -0.001171
								CHANNELS 3 Zrotation Yrotation Xrotation
								End Site
								{
									OFFSET 0.000000 0.000000 0.000000
								}
							}
						}
					}
				}
				JOINT RightShoulder
				{
					OFFSET -0.081759 0.118833 -0.038615
					CHANNELS 3 Zrotation Yrotation Xrotation
					JOINT RightArm
					{
						OFFSET -0.096012 0.032551 -0.009143
						CHANNELS 3 Zrotation Yrotation Xrotation
						JOINT RightForeArm
						{
							OFFSET -0.253742 -0.013329 -0.021401
							CHANNELS 3 Zrotation Yrotation Xrotation
							JOINT RightHand
							{
								OFFSET -0.255298 0.007772 -0.005559
								CHANNELS 3 Zrotation Yrotation Xrotation
								End Site
								{
									OFFSET 0.000000 0.000000 0.000000
								}
							}
						}
					}
				}
			}
		}
	}
}
MOTION
Frames: 7
Frame Time: 0.050000
-0.014811 0.940355 -0.116201 -3.207726 13.503658 32.396890 11.287701 -2.265895 -37.496541 7.195401 -1.184368 5.100617 -1.697218 -2.343713 1.944305 0.000000 0.000000 0.000000 -2.850080 1.149710 -44.618088 -2.873432 0.977662 15.140204 -1.316116 -6.315466 14.369032 0.000000 0.000000 0.000000 1.380712 -5.862271 46.513296 -4.421620 1.827887 -0.015053 8.722133 3.366030 12.180163 -6.608355 5.306291 -14.933086 0.000000 0.000000 0.000000 34.979326 -6.594116 4.416751 35.281328 -60.992425 -25.612478 28.634368 -0.380494 -0.257106 0.000000 0.000000 0.000000 -44.274748 10.904436 1.021946 -10.784346 49.901460 -5.274047 -23.156601 5.478952 -0.215658 0.000000 0.000000 0.000000 
-0.014000 0.938048 -0.114211 -3.115277 13.169092 32.799734 11.336217 -2.279329 -38.598921 6.906712 -1.297358 6.479214 -1.335091 -1.850892 1.501472 0.000000 0.000000 0.000000 -2.822855 1.207874 -45.390875 -2.963902 1.025003 15.602614 -1.676642 -7.084684 14.460947 0.000000 0.000000 0.000000 1.344440 -5.906760 47.232852 -4.757504 1.968620 0.492474 8.780412 4.081326 11.303748 -5.841240 4.854981 -14.030688 0.000000 0.000000 0.000000 33.610276 -7.085606 4.569122 35.387096 -61.252298 -26.039662 30.411345 -0.423388 -0.255440 0.000000 0.000000 0.000000 -44.488060 10.734941 1.012890 -10.905116 49.127617 -5.087198 -23.516631 5.737979 -0.233992 0.000000 0.000000 0.000000 
-0.013536 0.935981 -0.111991 -2.905629 12.778655 33.316834 11.336989 -2.294531 -39.613443 6.481233 -1.366318 7.710050 -0.935298 -1.287430 1.006976 0.000000 0.000000 0.000000 -3.076978 1.169864 -46.120430 -2.727393 0.974951 15.511800 -2.158324 -8.173459 15.239136 0.000000 0.000000 0.000000 1.109472 -5.790742 47.752423 -4.829164 1.997073 0.715853 8.827796 4.603332 11.056252 -5.474879 4.630270 -13.196663 0.000000 0.000000 0.000000 32.097773 -7.692968 4.657137 35.306552 -61.400968 -26.253993 32.066565 -0.214795 -0.184417 0.000000 0.000000 0.000000 -44.377736 10.721574 0.962769 -10.462266 48.578612 -4.769000 -24.594593 5.762595 -0.213642 0.000000 0.000000 0.000000 
-0.013428 0.935080 -0.109852 -2.900658 12.268741 33.992892 11.676989 -2.192268 -40.588985 6.001324 -1.385232 8.650965 -0.653879 -0.801330 0.789885 0.000000 0.000000 0.000000 -3.009697 1.281399 -47.158730 -2.516298 0.950383 15.861473 -2.677820 -9.302416 15.622612 0.000000 0.000000 0.000000 0.918465 -5.685021 48.405051 -4.931210 2.043566 0.728853 8.903126 5.357452 10.890441 -4.307631 3.949612 -12.828805 0.000000 0.000000 0.000000 31.053996 -7.856582 4.775325 34.807899 -61.901955 -26.525180 34.158371 -0.182527 -0.159325 0.000000 0.000000 0.000000 -44.564902 10.417970 0.870939 -9.756382 48.185587 -4.314268 -25.448248 6.045479 -0.227143 0.000000 0.000000 0.000000 
-0.013447 0.933759 -0.107931 -3.150165 11.535733 34.692779 11.999477 -2.021594 -41.362285 5.776754 -1.390634 9.123914 -0.180033 0.220872 0.732924 0.000000 0.000000 0.000000 -2.986635 1.446004 -48.404962 -2.124672 0.883904 16.047725 -2.846807 -9.923846 16.643054 0.000000 0.000000 0.000000 0.648277 -5.404466 48.749161 -5.081676 2.115384 0.499506 8.878119 5.730606 11.389914 -3.724980 3.617720 -12.767834 0.000000 0.000000 0.000000 30.591955 -8.553281 4.833385 32.663597 -61.824789 -25.299947 35.820018 -0.498081 -0.248923 0.000000 0.000000 0.000000 -44.459386 10.309328 0.812669 -10.042165 48.133985 -4.379345 -26.555673 6.018431 -0.206901 0.000000 0.000000 0.000000 
-0.013086 0.932922 -0.106115 -3.366379 10.763031 34.984786 12.194718 -1.850908 -41.907623 5.817401 -1.447078 9.654538 -0.058475 0.695478 1.115150 0.000000 0.000000 0.000000 -3.030062 1.607389 -49.361352 -1.485274 0.755154 16.350748 -3.396300 -11.242453 18.039416 0.000000 0.000000 0.000000 0.733756 -5.315135 49.082817 -5.185577 2.167134 0.455774 8.614490 5.945699 11.361057 -3.163037 3.229762 -11.958025 0.000000 0.000000 0.000000 30.445652 -8.793691 4.841998 30.512163 -62.755442 -24.523384 37.764980 -1.210231 -0.438701 0.000000 0.000000 0.000000 -44.097899 10.391186 0.844386 -10.263155 48.654728 -4.546437 -27.483395 5.917533 -0.189300 0.000000 0.000000 0.000000 
-0.012188 0.932433 -0.104638 -3.592897 9.620686 34.804438 12.280885 -1.598639 -41.548292 5.582535 -1.456321 10.258546 0.357534 1.266309 0.516923 0.000000 0.000000 0.000000 -3.048427 1.879270 -50.211593 -1.076114 0.705011 17.130655 -3.769699 -12.323475 19.798605 0.000000 0.000000 0.000000 0.772913 -5.138525 49.727013 -5.101919 2.144474 0.259716 8.344446 6.131760 11.496901 -2.604294 2.827077 -11.107222 0.000000 0.000000 0.000000 30.689307 -8.498673 4.763438 28.744820 -62.764899 -23.365941 38.701160 -2.415749 -0.828496 0.000000 0.000000 0.000000 -44.190143 11.058157 0.880123 -10.720764 48.212887 -4.744152 -27.687130 6.013982 -0.223779 0.000000 0.000000 0.000000 
